UNKNOWN
version=1
nRows=58
nColumns=9
inDegrees=no
endheader
time	time	pelvis_tilt	hip_flexion_r	hip_flexion_l	knee_angle_r	knee_angle_l	ankle_angle_r	ankle_angle_l
    264.00000000	      7.01000000	     -2.03060984	    -12.11910317	      3.41046246	    -10.54379120	    -63.76827995	      4.30919340	    -12.26485300
    265.00000000	      7.02000000	     -1.88203119	    -13.36895808	      4.82826122	     -9.67968301	    -62.62319922	      4.44491947	    -11.07190023
    266.00000000	      7.03000000	     -1.72566011	    -14.67022367	      6.01076250	     -8.82252866	    -61.07708992	      4.55956761	     -9.74817550
    267.00000000	      7.04000000	     -1.63818891	    -15.86399479	      7.10921625	     -8.04270947	    -59.19859522	      4.67926344	     -8.32317210
    268.00000000	      7.05000000	     -1.59552474	    -17.01727835	      8.04781891	     -7.34099042	    -56.96361200	      4.84864839	     -6.91605975
    269.00000000	      7.06000000	     -1.57505026	    -18.25799270	      8.72386282	     -6.64689878	    -54.35020686	      5.01543749	     -5.69123972
    270.00000000	      7.07000000	     -1.70471576	    -19.32673262	      9.42626845	     -6.01538223	    -51.49131768	      5.20622347	     -4.56618256
    271.00000000	      7.08000000	     -1.84792245	    -20.53785565	      9.83604172	     -5.33713939	    -48.27001411	      5.38275683	     -3.66116454
    272.00000000	      7.09000000	     -2.13875223	    -21.61743374	     10.23875535	     -4.69614950	    -44.82105943	      5.58436594	     -2.78184677
    273.00000000	      7.10000000	     -2.46012477	    -22.73123589	     10.43352355	     -4.06871764	    -41.05780724	      5.80164945	     -1.92703139
    274.00000000	      7.11000000	     -2.80972780	    -23.89838172	     10.40504957	     -3.44306748	    -36.98852831	      6.02407460	     -1.08257069
    275.00000000	      7.12000000	     -3.21310893	    -25.02772466	     10.27189431	     -2.85918936	    -32.69686503	      6.28947980	     -0.18331486
    276.00000000	      7.13000000	     -3.59053383	    -26.25282428	      9.90677303	     -2.27217761	    -28.16130409	      6.59532967	      0.60737327
    277.00000000	      7.14000000	     -4.03109816	    -27.43517276	      9.45548056	     -1.78492999	    -23.50859486	      6.90110967	      1.25797099
    278.00000000	      7.15000000	     -4.45110955	    -28.68233686	      8.81052662	     -1.33654921	    -18.76270386	      7.22315727	      1.68354101
    279.00000000	      7.16000000	     -4.94515667	    -29.87124606	      8.04165629	     -1.07381038	    -14.06196530	      7.56646128	      1.90682846
    280.00000000	      7.17000000	     -5.58691345	    -31.00560225	      7.11708797	     -1.01215650	     -9.53158085	      7.87031110	      1.94825818
    281.00000000	      7.18000000	     -6.49101162	    -31.97927451	      6.05495744	     -1.31982276	     -5.33905057	      8.18064577	      1.83633354
    282.00000000	      7.19000000	     -7.62514579	    -32.75999019	      4.94064179	     -2.00491209	     -1.67784780	      8.50564737	      1.57658342
    283.00000000	      7.20000000	     -7.25968026	    -34.09823647	      4.39482164	     -1.68736930	      1.52484099	      8.81208138	      1.39162055
    284.00000000	      7.21000000	     -6.59638005	    -35.30197787	      4.10458476	     -1.47932813	      3.86059964	      9.13816697	      1.24291781
    285.00000000	      7.22000000	     -7.05230514	    -35.80668734	      3.68939818	     -2.51403947	      4.92730586	      9.48147165	      1.15795845
    286.00000000	      7.23000000	     -7.34076787	    -36.13508637	      3.55655230	     -3.75301411	      4.92786862	      9.78915910	      1.33839198
    287.00000000	      7.24000000	     -7.56859975	    -36.26706900	      3.51073497	     -5.34614614	      4.00681939	     10.09901047	      1.67561170
    288.00000000	      7.25000000	     -7.98770741	    -36.00707726	      3.57425876	     -7.41489159	      2.34836544	     10.35908550	      1.99589812
    289.00000000	      7.26000000	     -8.60774572	    -35.45188664	      3.60582858	     -9.86350933	      0.27271783	     10.48233304	      2.12662006
    290.00000000	      7.27000000	     -7.37401645	    -35.78181597	      4.18961841	    -10.88247155	     -1.52439357	     10.28878012	      1.99644435
    291.00000000	      7.28000000	     -5.86299700	    -36.13287626	      4.79465483	    -11.81311719	     -3.10560589	      9.85712279	      1.25003346
    292.00000000	      7.29000000	     -5.81031269	    -35.54826827	      4.53221859	    -14.49749593	     -4.38984786	      9.17012146	     -0.31465231
    293.00000000	      7.30000000	     -5.60698496	    -34.71786498	      4.11804296	    -17.57908935	     -5.26729881	      7.94911400	     -2.34442711
    294.00000000	      7.31000000	     -5.12947491	    -33.85741346	      3.63981075	    -20.58026500	     -5.87932177	      6.28168912	     -4.44242684
    295.00000000	      7.32000000	     -4.44668257	    -33.01492484	      3.33086281	    -23.21206509	     -6.54022977	      4.36028069	     -6.10810336
    296.00000000	      7.33000000	     -3.79823617	    -31.70870322	      2.75960379	    -26.82341709	     -7.34706078	      1.37092927	     -7.05424865
    297.00000000	      7.34000000	     -2.93092712	    -30.08478911	      2.53635905	    -30.48580370	     -8.50519117	     -1.98565202	     -7.21692235
    298.00000000	      7.35000000	     -2.00051878	    -28.17602168	      2.42412188	    -34.33471162	     -9.87363428	     -5.90170323	     -6.74889781
    299.00000000	      7.36000000	     -1.12607408	    -26.09527925	      2.35996251	    -38.17091413	    -11.29220575	    -10.31876688	     -5.89564450
    300.00000000	      7.37000000	     -0.36159622	    -24.00525932	      2.16181657	    -41.83270242	    -12.55319392	    -14.87867250	     -4.84730871
    301.00000000	      7.38000000	      0.26425909	    -21.98878328	      1.78896284	    -45.21510647	    -13.55298475	    -18.97314121	     -3.73614323
    302.00000000	      7.39000000	      0.75005694	    -20.08531946	      1.25676588	    -48.28175983	    -14.26104689	    -21.84383270	     -2.63956438
    303.00000000	      7.40000000	      1.11822655	    -18.30025022	      0.61282488	    -51.03366778	    -14.68909408	    -22.86975707	     -1.61469931
    304.00000000	      7.41000000	      1.35877350	    -16.62825246	     -0.12716671	    -53.46941696	    -14.83906700	    -21.88609864	     -0.72291466
    305.00000000	      7.42000000	      1.00803538	    -14.76836515	     -1.49858226	    -56.01389665	    -14.63237902	    -21.91022641	     -0.08459414
    306.00000000	      7.43000000	      0.54322708	    -12.75484809	     -2.90826387	    -58.34314499	    -14.19280133	    -21.23185397	      0.33249031
    307.00000000	      7.44000000	      0.40140828	    -10.92904436	     -3.93445621	    -60.02576243	    -13.66040342	    -18.11788763	      0.65151625
    308.00000000	      7.45000000	      0.17786260	     -9.10658774	     -5.07298030	    -61.41059095	    -12.99154325	    -15.41680094	      0.83596893
    309.00000000	      7.46000000	     -0.07259597	     -7.19566659	     -6.16423769	    -62.51087208	    -12.26517694	    -13.30183479	      0.96555460
    310.00000000	      7.47000000	     -0.31059123	     -5.29894166	     -7.25994653	    -63.30084447	    -11.48465113	    -11.75597254	      1.04794716
    311.00000000	      7.48000000	     -0.52068710	     -3.48268032	     -8.38811100	    -63.76197773	    -10.64814558	    -10.65919922	      1.11374503
    312.00000000	      7.49000000	     -0.70790131	     -1.78096532	     -9.53613838	    -63.88805930	     -9.79209524	     -9.83964004	      1.19376212
    313.00000000	      7.50000000	     -0.90589812	     -0.24638270	    -10.73060643	    -63.66315430	     -8.94143698	     -9.12634570	      1.31024990
    314.00000000	      7.51000000	     -1.03323371	      1.19999514	    -11.90838725	    -63.14919002	     -8.11933887	     -8.34578455	      1.47047831
    315.00000000	      7.52000000	     -1.18144547	      2.45179442	    -13.08932006	    -62.27317018	     -7.35972161	     -7.48000828	      1.65069530
    316.00000000	      7.53000000	     -1.27654623	      3.60357225	    -14.27226793	    -61.12775729	     -6.63366591	     -6.44568358	      1.87683760
    317.00000000	      7.54000000	     -1.33033931	      4.64648846	    -15.42794059	    -59.68096090	     -5.95713500	     -5.31828217	      2.13939166
    318.00000000	      7.55000000	     -1.34712268	      5.51707732	    -16.61921145	    -57.91366616	     -5.30278407	     -4.19954653	      2.40104753
    319.00000000	      7.56000000	     -1.31538395	      6.32952494	    -17.73176932	    -55.84469324	     -4.69216615	     -3.19955086	      2.67434396
    320.00000000	      7.57000000	     -1.23008521	      7.02584973	    -18.82168595	    -53.47192482	     -4.11573539	     -2.39164463	      2.94999414
    321.00000000	      7.58000000	     -1.10138826	      7.57817653	    -19.92573241	    -50.80213441	     -3.55405329	     -1.83323750	      3.19985484
